<?xml version="1.0" standalone="no"?>
<!DOCTYPE svg PUBLIC "-//W3C//DTD SVG 20010904//EN"
 "http://www.w3.org/TR/2001/REC-SVG-20010904/DTD/svg10.dtd">
<svg version="1.0" xmlns="http://www.w3.org/2000/svg"
 width="844.000000pt" height="978.000000pt" viewBox="0 0 844.000000 978.000000"
 preserveAspectRatio="xMidYMid meet">
<metadata>
Created by potrace 1.15, written by Peter Selinger 2001-2017
</metadata>
<g transform="translate(0.000000,978.000000) scale(0.100000,-0.100000)"
fill="#000000" stroke="none">
<path d="M0 9501 l0 -278 23 4 c12 2 945 125 2072 273 1128 148 2061 271 2075
273 14 2 -919 5 -2072 6 l-2098 1 0 -279z"/>
<path d="M4165 9230 c-110 -6 -332 -47 -380 -69 -11 -5 -60 -26 -110 -47 -49
-20 -126 -61 -170 -90 -87 -57 -227 -190 -252 -237 -8 -16 -40 -61 -72 -101
-72 -89 -116 -160 -135 -214 -9 -23 -23 -59 -31 -80 -9 -20 -23 -52 -31 -69
-13 -32 -6 -83 13 -83 5 0 34 -25 67 -55 32 -30 62 -55 67 -55 14 0 59 116 59
151 0 13 47 109 123 251 39 73 210 253 308 323 59 42 145 85 172 85 10 0 28 6
40 14 47 31 344 74 389 57 15 -6 89 -11 165 -12 l138 -3 112 54 c96 46 110 56
102 71 -12 23 -212 86 -314 98 -44 6 -93 12 -110 14 -16 2 -84 1 -150 -3z"/>
<path d="M5385 9165 c-33 -8 -161 -30 -285 -50 -124 -20 -234 -38 -245 -42
-63 -18 -303 -148 -380 -205 -14 -11 -107 -86 -125 -101 -118 -101 -150 -133
-150 -147 0 -21 121 -120 147 -120 10 0 48 30 83 66 36 36 94 85 130 108 168
109 340 206 368 206 9 1 35 8 57 16 114 43 431 98 503 87 44 -7 49 -24 25 -86
-11 -29 -31 -86 -43 -127 -13 -41 -27 -79 -32 -84 -13 -16 -8 -88 8 -131 9
-22 24 -62 34 -88 9 -27 22 -53 28 -59 14 -14 42 -3 42 16 0 8 15 43 34 78 39
73 123 322 141 413 10 56 33 240 30 243 -18 18 -300 23 -370 7z"/>
<path d="M3095 8843 c-199 -17 -424 -66 -595 -130 -117 -44 -116 -42 -72 -137
110 -242 196 -371 357 -532 89 -90 131 -123 220 -176 61 -36 142 -85 180 -108
39 -24 106 -60 150 -80 96 -44 280 -104 298 -97 13 5 37 110 37 164 0 34 -10
40 -140 83 -154 50 -379 168 -457 237 -147 133 -219 204 -251 247 -20 27 -56
74 -79 105 -59 78 -75 109 -68 132 10 30 29 36 190 59 169 24 157 16 251 147
44 61 55 95 32 91 -7 -1 -31 -3 -53 -5z"/>
<path d="M5018 8818 c-107 -36 -110 -47 -33 -113 64 -56 120 -128 164 -211 18
-32 43 -77 56 -99 20 -33 56 -131 79 -220 18 -67 24 -172 16 -280 -8 -108 -14
-137 -66 -285 -53 -154 -63 -174 -149 -301 l-92 -136 -7 -94 c-4 -52 -10 -109
-13 -126 -5 -29 -3 -33 18 -33 27 0 31 3 150 123 167 169 271 357 340 617 25
95 36 341 21 455 -16 115 -82 321 -134 420 -69 131 -212 316 -242 314 -12 -1
-60 -15 -108 -31z"/>
<path d="M3614 8766 c-80 -64 -164 -150 -164 -168 0 -12 7 -18 23 -18 83 -1
344 -107 469 -191 48 -33 90 -59 94 -59 11 0 90 -59 135 -101 58 -55 162 -178
214 -253 22 -32 49 -69 61 -84 l21 -25 44 21 c24 12 73 32 109 46 56 21 65 27
62 48 -1 13 -12 37 -24 53 -12 17 -42 59 -66 95 -76 114 -300 336 -421 418
-167 114 -343 202 -472 237 -45 12 -47 12 -85 -19z"/>
<path d="M8390 8743 c-66 -6 -185 -35 -265 -64 -84 -32 -309 -142 -336 -165
-8 -8 -19 -14 -22 -14 -15 0 -268 -178 -382 -268 -172 -137 -257 -213 -455
-406 -339 -331 -584 -563 -674 -639 -27 -23 -56 -49 -65 -57 -30 -28 -155
-125 -224 -175 -38 -26 -73 -60 -79 -74 l-10 -26 -10 28 c-16 46 -61 40 -152
-21 -37 -26 -102 -65 -142 -87 -41 -22 -123 -69 -182 -105 -59 -36 -111 -67
-117 -69 -21 -9 -60 -43 -66 -59 -9 -23 15 -87 49 -130 79 -103 152 -400 152
-617 0 -111 -25 -237 -63 -325 -14 -33 -13 -42 14 -155 16 -66 36 -145 44
-175 9 -30 24 -84 33 -120 10 -36 30 -83 44 -106 30 -47 131 -126 268 -209
109 -67 182 -95 261 -102 70 -7 101 8 97 44 -3 22 -15 31 -98 63 -237 94 -312
135 -385 208 -49 50 -65 72 -50 72 3 0 33 -23 67 -50 131 -106 315 -167 448
-150 81 10 95 16 114 45 23 36 20 79 -9 113 l-25 30 -114 0 c-108 0 -148 7
-223 39 -17 7 -35 13 -40 13 -4 0 -21 11 -38 24 -31 25 -30 44 2 28 31 -16 66
-30 108 -43 22 -6 52 -16 66 -21 30 -11 204 5 285 26 101 26 224 131 224 191
0 40 -15 60 -60 80 -36 16 -47 17 -93 6 -162 -38 -338 -54 -352 -31 -3 6 -17
10 -30 10 -13 0 -27 5 -30 10 -3 6 -17 10 -30 10 -26 0 -40 14 -30 30 3 5 23
2 48 -9 66 -28 159 -34 274 -17 56 8 119 24 140 36 21 11 43 20 50 20 16 0 86
38 155 84 128 85 284 278 276 343 -3 24 -8 28 -36 31 -30 3 -133 -22 -157 -38
-5 -4 -30 -12 -55 -19 -25 -7 -49 -17 -55 -21 -5 -4 -64 -24 -130 -45 -66 -20
-145 -46 -175 -56 -102 -35 -280 -55 -253 -28 4 4 37 15 73 23 90 20 233 62
256 74 10 5 54 17 97 27 42 9 79 21 82 26 3 5 25 13 48 20 23 6 92 35 153 64
97 47 123 65 202 142 142 139 285 322 321 409 19 47 11 94 -20 116 -22 17 -32
18 -66 9 -40 -11 -118 -58 -160 -97 -12 -12 -42 -34 -65 -49 -24 -16 -56 -37
-73 -49 -104 -71 -179 -119 -232 -148 -34 -18 -91 -51 -128 -72 -38 -22 -83
-44 -100 -50 -18 -7 -39 -16 -46 -22 -27 -20 -176 -73 -226 -79 -65 -9 -81 10
-21 25 136 35 379 145 472 212 21 15 43 28 49 28 11 0 169 101 241 155 29 22
64 47 76 55 135 90 243 192 355 333 39 49 90 112 113 140 53 64 127 175 147
224 20 48 19 117 -2 138 -29 30 -153 -2 -215 -55 -7 -6 -80 -63 -163 -127 -82
-65 -161 -127 -175 -140 -14 -13 -28 -23 -32 -23 -5 0 -16 -8 -26 -18 -18 -18
-143 -121 -190 -157 -21 -16 -164 -123 -217 -163 -5 -4 -30 -20 -55 -36 -25
-17 -54 -38 -65 -48 -20 -17 -82 -54 -135 -80 -14 -7 -27 -15 -30 -18 -13 -15
-98 -58 -127 -64 -51 -11 -48 11 4 34 57 24 67 30 180 98 48 29 108 68 133 87
25 18 49 34 53 34 4 1 18 10 30 22 12 12 33 28 47 37 14 9 29 22 33 29 4 7 13
13 20 13 7 0 26 13 42 28 17 15 84 71 150 124 66 53 149 122 185 152 36 30 84
69 108 85 23 17 48 35 55 41 6 6 68 53 137 106 147 112 201 169 273 284 147
235 217 423 165 443 -43 16 -192 -68 -292 -165 -17 -15 -33 -28 -36 -28 -4 0
-27 -18 -51 -41 -54 -51 -132 -122 -230 -213 -41 -37 -112 -105 -159 -150 -79
-75 -164 -154 -286 -266 -27 -25 -76 -67 -109 -95 -76 -65 -159 -137 -165
-144 -3 -3 -20 -17 -39 -30 -18 -13 -41 -30 -50 -38 -38 -33 -162 -123 -170
-123 -5 0 -14 -7 -21 -15 -7 -8 -21 -15 -31 -15 -33 0 -3 31 82 85 43 28 78
53 79 57 0 3 20 18 44 32 24 14 58 40 77 58 19 18 58 53 88 78 30 25 102 90
160 146 58 55 134 127 167 158 34 31 95 89 136 129 95 92 182 173 288 267 47
41 107 95 133 120 27 25 56 49 65 54 9 5 19 12 22 16 3 3 59 49 125 101 66 51
176 145 245 208 191 175 305 261 455 346 28 16 57 34 65 40 8 6 44 24 80 40
97 42 140 79 140 120 0 39 -3 41 -50 38z m-2549 -2598 c-16 -50 -19 -70 -11
-91 17 -43 7 -56 -28 -38 -28 14 -33 13 -99 -26 -39 -22 -75 -40 -82 -40 -26
0 -7 27 42 58 99 62 136 108 183 227 7 19 8 19 12 -3 2 -12 -6 -52 -17 -87z"/>
<path d="M3952 8287 c-26 -31 -109 -225 -132 -307 -7 -25 -19 -63 -28 -85 -29
-76 -53 -253 -53 -395 0 -105 32 -438 44 -457 16 -24 197 -87 211 -73 5 5 1
54 -12 122 -53 284 -52 581 3 755 8 26 20 64 26 83 6 19 34 84 62 144 l52 108
-26 22 c-14 11 -46 38 -70 58 -48 41 -61 45 -77 25z"/>
<path d="M5050 8147 c-80 -78 -206 -177 -226 -177 -3 0 -20 -11 -37 -24 -129
-95 -397 -179 -615 -193 -126 -8 -132 -14 -135 -123 l-2 -85 90 3 c150 6 525
89 575 128 8 6 26 15 40 19 40 12 190 93 247 133 171 122 233 176 233 201 -1
31 -34 184 -44 200 -14 22 -32 10 -126 -82z"/>
<path d="M2940 7779 c0 -13 7 -44 15 -69 8 -25 21 -79 29 -120 14 -72 41 -141
89 -225 13 -22 37 -65 53 -95 71 -131 143 -218 274 -331 84 -72 108 -87 210
-141 126 -65 228 -98 339 -109 53 -5 121 -14 151 -21 79 -15 219 -13 339 6 57
9 106 17 107 19 6 5 35 122 43 170 10 59 5 62 -69 42 -132 -37 -222 -47 -370
-42 -125 4 -158 9 -240 35 -110 35 -166 58 -175 72 -3 5 -13 10 -20 10 -59 0
-332 230 -369 310 -9 19 -25 49 -36 65 -43 66 -101 180 -126 250 -15 39 -50
85 -66 85 -4 0 -40 23 -79 51 -90 64 -99 67 -99 38z"/>
<path d="M43 7643 l-43 -4 0 -55 c0 -62 5 -65 95 -79 28 -4 75 -14 105 -22 30
-8 71 -19 90 -23 108 -27 284 -101 475 -200 83 -42 195 -96 250 -120 179 -76
237 -103 450 -211 202 -102 292 -150 400 -210 28 -16 75 -41 105 -56 30 -15
57 -30 60 -33 3 -3 28 -17 55 -32 48 -25 81 -42 190 -103 28 -15 54 -31 59
-36 6 -5 16 -9 23 -9 8 0 55 -20 106 -44 101 -48 200 -88 290 -117 67 -21 104
-44 88 -54 -10 -5 -93 18 -156 45 -11 4 -51 21 -90 36 -38 15 -74 31 -79 36
-6 4 -18 8 -27 8 -10 0 -19 3 -21 8 -1 4 -28 19 -58 33 -215 101 -654 328
-790 408 -46 28 -397 202 -482 240 -26 12 -54 21 -61 21 -7 0 -17 4 -22 9 -6
5 -40 12 -77 16 -66 7 -67 7 -74 -19 -3 -14 -2 -39 4 -54 25 -72 221 -289 347
-386 67 -51 178 -110 257 -135 21 -7 40 -17 43 -22 4 -5 15 -9 26 -9 10 0 27
-4 37 -10 9 -5 55 -25 102 -44 47 -18 130 -55 185 -81 220 -103 246 -115 254
-115 4 0 34 -13 67 -29 32 -15 70 -32 84 -36 14 -4 43 -15 65 -25 22 -10 56
-23 75 -30 19 -7 44 -16 55 -21 11 -4 52 -18 90 -30 39 -11 90 -28 115 -37 25
-8 65 -19 90 -23 94 -17 110 -22 110 -30 0 -25 -57 -18 -200 22 -19 6 -51 14
-70 19 -19 5 -73 23 -120 41 -47 17 -99 35 -117 40 -18 5 -35 14 -38 19 -4 6
-16 10 -28 10 -12 0 -49 14 -82 30 -33 17 -63 30 -67 30 -4 0 -36 13 -70 29
-35 16 -101 46 -148 66 -93 40 -108 47 -224 99 -43 20 -82 36 -87 36 -4 0 -36
13 -71 29 -110 51 -176 71 -236 71 -73 0 -102 -18 -102 -65 0 -44 74 -142 153
-204 62 -48 85 -65 262 -193 107 -78 228 -149 275 -163 26 -8 103 -40 132 -56
10 -5 24 -9 31 -9 8 0 29 -7 47 -16 18 -9 46 -20 64 -24 17 -5 56 -17 86 -28
55 -20 160 -50 275 -78 33 -8 76 -19 96 -24 20 -6 48 -10 63 -10 15 0 36 -5
46 -10 11 -6 70 -11 132 -11 62 -1 117 -4 121 -6 4 -3 3 -11 -4 -19 -13 -16
-119 -18 -209 -4 -30 5 -82 14 -115 19 -33 5 -87 17 -120 26 -33 9 -103 27
-155 41 -101 26 -234 69 -262 84 -10 6 -27 10 -37 10 -11 0 -23 5 -26 10 -3 6
-13 10 -20 10 -8 0 -38 11 -67 24 -119 53 -201 64 -237 32 -62 -56 23 -169
234 -314 42 -29 88 -60 103 -71 115 -78 195 -110 387 -150 58 -12 220 -20 488
-23 181 -3 220 -10 151 -30 -49 -15 -319 -11 -529 7 -199 17 -287 17 -306 -2
-39 -39 84 -162 251 -251 136 -72 339 -105 507 -82 102 14 164 36 224 83 40
30 49 33 49 14 0 -13 -73 -67 -90 -67 -4 0 -13 -7 -20 -15 -23 -27 -147 -52
-297 -59 -103 -5 -150 -24 -171 -71 -18 -39 -15 -59 16 -87 32 -31 66 -48 149
-77 53 -19 75 -21 135 -16 183 17 262 46 379 137 44 33 54 35 39 7 -12 -21
-46 -59 -54 -59 -3 0 -26 -14 -52 -32 -60 -41 -179 -87 -224 -88 -48 0 -74
-21 -89 -70 -16 -52 -8 -74 35 -100 29 -18 43 -21 87 -15 92 12 151 34 233 88
99 65 149 112 208 201 48 73 62 70 24 -5 -28 -54 -54 -88 -121 -158 -52 -54
-255 -211 -290 -224 -13 -5 -17 -15 -15 -34 6 -55 104 -44 206 21 55 35 211
199 279 292 48 66 61 92 68 135 9 65 10 273 0 422 -6 91 -10 112 -29 135 -29
34 -86 134 -108 187 -30 72 -57 223 -74 410 -8 90 11 265 37 333 19 54 24 108
11 128 -4 6 -45 23 -92 37 -47 14 -138 42 -204 61 -65 20 -134 36 -152 36 -19
0 -56 11 -82 23 -73 37 -132 50 -165 38 -25 -10 -28 -15 -22 -40 7 -33 -10
-52 -20 -22 -8 26 -36 43 -120 74 -150 55 -379 162 -535 250 -25 14 -70 39
-100 55 -30 16 -74 41 -97 55 -24 15 -45 27 -47 27 -3 0 -63 32 -133 71 -70
39 -153 85 -183 102 -30 16 -62 35 -70 42 -17 15 -318 167 -435 220 -445 204
-838 302 -1112 278z m3006 -1340 c25 -14 48 -29 51 -32 9 -11 88 -53 175 -92
35 -16 45 -24 32 -27 -21 -4 -119 30 -137 48 -20 20 -110 58 -127 54 -56 -15
-27 -97 61 -171 14 -13 28 -23 31 -23 6 0 79 -50 85 -59 3 -4 24 -13 48 -21
49 -15 61 -27 37 -36 -18 -7 -65 13 -78 33 -10 16 -73 17 -113 3 -31 -11 -54
-49 -54 -89 0 -21 -2 -23 -10 -11 -23 36 6 111 49 125 30 9 15 39 -45 90 -78
67 -89 119 -42 188 11 15 10 20 -6 33 -32 23 -6 16 43 -13z m48 -460 c13 -34
81 -90 144 -117 35 -15 73 -31 84 -36 11 -5 29 -11 40 -12 19 -4 19 -4 -2 -16
-14 -8 -31 -9 -50 -3 -114 35 -110 34 -134 17 -34 -23 -39 -20 -39 20 0 24
-11 53 -35 88 -19 29 -35 58 -35 65 0 17 20 13 27 -6z"/>
<path d="M4715 7591 c-39 -16 -71 -35 -73 -44 -2 -8 7 -64 18 -124 26 -127 39
-432 22 -491 -9 -32 -29 -125 -63 -288 -8 -44 -82 -223 -106 -260 -8 -13 -28
-24 -46 -26 -18 -3 -40 -8 -49 -12 -10 -5 -23 -1 -35 11 -37 39 -89 101 -123
146 -24 32 -46 50 -70 56 -56 15 -209 28 -219 18 -6 -6 5 -30 27 -61 20 -28
48 -69 63 -91 15 -23 38 -52 51 -65 63 -66 148 -168 148 -178 0 -6 -20 -30
-45 -53 -88 -82 -110 -178 -59 -264 21 -37 39 -51 99 -80 88 -43 80 -19 125
-370 17 -132 40 -307 52 -390 26 -192 26 -204 0 -224 -12 -9 -31 -32 -42 -51
-51 -87 -62 -122 -67 -213 -5 -87 -4 -97 26 -172 35 -86 69 -129 144 -178 58
-38 59 -40 92 -302 14 -110 32 -234 40 -275 25 -126 65 -461 57 -475 -4 -7
-30 -34 -59 -59 -88 -79 -114 -165 -74 -251 23 -51 41 -66 126 -107 l70 -34
17 -82 c10 -45 45 -288 78 -539 33 -252 69 -516 80 -588 11 -71 58 -422 105
-780 47 -357 87 -660 90 -673 5 -22 7 -22 190 -22 l185 0 0 32 c0 18 -9 102
-21 186 -15 110 -18 157 -10 165 9 9 427 70 623 91 86 9 84 -3 44 300 -20 146
-36 277 -36 290 0 40 -17 44 -115 30 -49 -7 -90 -13 -91 -13 -1 -1 -4 -38 -6
-84 -3 -46 -10 -92 -16 -103 -6 -10 -13 -30 -16 -44 -12 -57 -89 -130 -136
-130 -56 0 -163 99 -185 170 -4 14 -13 34 -20 46 -20 32 -47 210 -48 314 0 73
5 112 23 167 29 93 64 133 127 144 43 8 52 7 91 -18 35 -22 54 -46 91 -115 25
-48 51 -92 58 -99 14 -14 184 6 196 24 4 7 5 26 2 42 -11 68 -65 485 -65 507
0 13 -6 32 -13 42 -12 16 -32 14 -356 -29 -190 -25 -348 -42 -353 -37 -4 4
-29 163 -53 352 -25 189 -50 373 -55 409 -14 98 -15 96 48 146 74 60 102 110
102 185 0 52 -3 61 -39 101 -35 40 -78 67 -152 97 -17 7 -28 20 -32 39 -3 15
-33 245 -68 510 l-63 481 45 54 c84 99 104 154 103 273 0 71 -4 89 -37 157
-31 64 -49 87 -105 132 -37 31 -74 61 -82 69 -12 9 -30 122 -73 447 -32 239
-57 443 -57 452 0 9 26 38 58 64 72 59 92 90 99 157 6 57 -15 115 -53 148 -26
22 -114 69 -129 69 -7 0 -18 6 -24 14 -12 15 0 63 28 106 44 67 122 309 145
450 10 58 22 121 27 141 5 20 9 90 9 155 0 96 -7 155 -36 309 -20 105 -40 197
-44 205 -11 23 -30 22 -105 -9z"/>
</g>
</svg>
